<svg id="Capa_1" enable-background="new 0 0 512 512" height="512" viewBox="0 0 512 512" width="512" xmlns="http://www.w3.org/2000/svg"><g><g><g clip-rule="evenodd" fill-rule="evenodd"><path d="m83.011 371.816c0-8.284 6.716-15 15-15s15 6.716 15 15-6.716 15-15 15c-8.285 0-15-6.716-15-15zm5.906 50.547c9.533 32.303 25.806 44.912 59.839 43.953 19.03 27.806 38.745 34.167 70.376 22.894 10.673 8.223 23.021 15.264 36.868 15.29 13.847-.026 26.195-7.066 36.868-15.29 31.631 11.273 51.346 4.911 70.376-22.894 34.033.96 50.306-11.65 59.839-43.953 31.903-9.844 44.222-23.937 43.232-59.118 27.746-18.988 34.147-38.751 22.889-70.368 8.226-10.676 15.271-23.026 15.296-36.877-.026-13.851-7.071-26.201-15.296-36.877 11.258-31.617 4.857-51.379-22.889-70.368.99-35.182-11.329-49.274-43.232-59.118-9.533-32.303-25.806-44.912-59.839-43.953-19.03-27.806-38.745-34.167-70.376-22.894-13.178-10.154-24.952-15.246-36.715-15.29-13.949 0-26.266 7.003-37.021 15.289-31.631-11.273-51.346-4.911-70.376 22.894-34.033-.959-50.306 11.65-59.839 43.953-31.903 9.844-44.222 23.937-43.232 59.118-27.746 18.988-34.147 38.751-22.889 70.368-8.225 10.677-15.27 23.027-15.296 36.878.026 13.851 7.071 26.201 15.296 36.877-11.258 31.617-4.857 51.379 22.889 70.368-.989 35.182 11.329 49.274 43.232 59.118zm24.695-188.879c-6.224 8.079-9.339 15.296-9.339 22.517 0 7.22 3.116 14.438 9.339 22.516-6.874 19.304-2.965 31.371 13.976 42.965-.604 21.48 6.917 30.085 26.396 36.095 5.821 19.723 15.757 27.423 36.536 26.837 11.619 16.977 23.656 20.862 42.969 13.979 8.081 6.226 15.298 9.335 22.511 9.335s14.43-3.109 22.511-9.335c19.313 6.883 31.35 2.999 42.969-13.979 20.78.586 30.716-7.113 36.536-26.837 19.479-6.01 27-14.615 26.396-36.095 16.941-11.594 20.849-23.661 13.976-42.965 6.224-8.078 9.339-15.296 9.339-22.516s-3.116-14.438-9.339-22.517c6.874-19.304 2.965-31.371-13.976-42.965.572-20.333-6.14-29.129-23.381-35.108v-52.521c0-8.25-6.816-16.022-15-15l-60.021 7.5c0-8.248-6.75-15-15-15h-30.022c-8.25 0-15 6.75-15 15l-60.021-7.5c-8.184-1.022-15 6.75-15 15v52.521c-17.241 5.979-23.953 14.775-23.381 35.108-16.94 11.594-20.848 23.66-13.974 42.965zm339.279 37.363c-8.284 0-15-6.716-15-15s6.716-15 15-15 15 6.715 15 15-6.715 15-15 15zm-343.02-131.627c0 8.284-6.716 14.999-15 15-8.284 0-15-6.716-15-15s6.715-15 15-15 15 6.715 15 15zm192.565 307.124c0-8.284 6.715-15 15-15 8.284 0 15 6.716 15 15s-6.716 14.999-15 15c-8.285-.001-15-6.716-15-15z" fill="#bdedd4"/><path d="m105.528 179.33c1.851-16.912 9.203-29.44 22.94-38.079v-38.361c0-21.443 18.44-40.056 40.289-37.326l43.749 5.467c6.885-8.037 17.102-13.14 28.482-13.14h30.022c11.38 0 21.597 5.104 28.482 13.14l43.75-5.467c21.849-2.73 40.289 15.884 40.289 37.326v38.361c13.737 8.639 21.09 21.167 22.94 38.079 14.949 13.734 20.354 30.366 16.331 50.267 4.551 8.04 7.424 16.787 7.424 26.403s-2.874 18.363-7.424 26.403c4.023 19.897-1.38 36.526-16.321 50.258-2.201 20.401-12.299 33.881-30.947 42.334-8.429 18.647-22.495 29.098-42.827 31.44-13.748 14.998-30.381 20.417-50.316 16.375-8.036 4.547-16.78 7.417-26.391 7.417s-18.354-2.871-26.391-7.417c-19.935 4.042-36.568-1.377-50.316-16.375-20.333-2.342-34.399-12.793-42.827-31.44-18.648-8.453-28.746-21.933-30.947-42.334-14.941-13.732-20.344-30.361-16.321-50.258-4.55-8.04-7.424-16.787-7.424-26.403s2.874-18.363 7.424-26.403c-4.025-19.901 1.381-36.533 16.33-50.267zm8.084 54.154c-6.224 8.079-9.339 15.296-9.339 22.517 0 7.22 3.116 14.438 9.339 22.516-6.874 19.304-2.965 31.371 13.976 42.965-.604 21.48 6.917 30.085 26.396 36.095 5.821 19.723 15.757 27.423 36.536 26.837 11.619 16.977 23.656 20.862 42.969 13.979 8.081 6.226 15.298 9.335 22.511 9.335s14.43-3.109 22.511-9.335c19.313 6.883 31.35 2.999 42.969-13.979 20.78.586 30.716-7.113 36.536-26.837 19.479-6.01 27-14.615 26.396-36.095 16.941-11.594 20.849-23.661 13.976-42.965 6.224-8.078 9.339-15.296 9.339-22.516s-3.116-14.438-9.339-22.517c6.874-19.304 2.965-31.371-13.976-42.965.572-20.333-6.14-29.129-23.381-35.108v-52.521c0-8.25-6.816-16.022-15-15l-60.021 7.5c0-8.248-6.75-15-15-15h-30.022c-8.25 0-15 6.75-15 15l-60.021-7.5c-8.184-1.022-15 6.75-15 15v52.521c-17.241 5.979-23.953 14.775-23.381 35.108-16.94 11.594-20.848 23.66-13.974 42.965z" fill="#7bdaa9"/><path d="m165.968 162.911 60.021-22.5v-45.022l-60.021-7.5c-8.184-1.022-15 6.75-15 15v52.521c0 8.251 7.281 10.394 15 7.501zm120.043-22.5 60.021 22.5c7.719 2.893 15 .75 15-7.5v-52.521c0-8.25-6.816-16.022-15-15l-60.021 7.5z" fill="#ff3e6c"/><path d="m240.989 155.411h30.022c8.248 0 15-6.752 15-15v-45.022c0-8.248-6.75-15-15-15h-30.022c-8.25 0-15 6.75-15 15v45.022c0 8.25 6.752 15 15 15z" fill="#ff3e6c"/><path d="m225.989 271.703 30-22.5 30.022 22.5v-131.292c0 8.248-6.752 15-15 15h-30.022c-8.248 0-15-6.75-15-15z" fill="#ff3e6c"/><path d="m94.871 154.22c8.284 0 15-6.716 15-15s-6.716-15-15-15-15 6.716-15 15c.001 8.284 6.716 14.999 15 15zm358.02 116.627c8.284 0 15-6.716 15-15s-6.716-15-15-15-15 6.715-15 15c.001 8.285 6.716 15 15 15zm-135.455 190.497c8.284 0 15-6.716 15-15s-6.716-15-15-15-15 6.716-15 15 6.715 14.999 15 15zm-219.426-74.528c8.284 0 15-6.716 15-15s-6.716-15-15-15-15 6.716-15 15c.001 8.284 6.716 15 15 15z" fill="#ff3e6c"/><path d="m203.49 148.845 22.499-8.434v-45.022l-22.499-2.811z" fill="#e41743"/><path d="m308.51 148.845-22.499-8.434v-45.022l22.499-2.811z" fill="#e41743"/><path d="m240.989 155.411h22.5c-8.248 0-15-6.75-15-15v-45.022c0-8.25 6.75-15 15-15h-22.5c-8.25 0-15 6.75-15 15v45.022c0 8.25 6.752 15 15 15z" fill="#e41743"/><path d="m225.989 271.703 22.5-16.875v-99.418h-7.5c-8.248 0-15-6.75-15-15z" fill="#e41743"/></g><g><path d="m278.5 57.89h-15v-15h15zm-30 0h-15v-15h15z" fill="#fff"/></g></g><g><path d="m512 256c0-12.38-4.602-24.602-14.43-38.207 10.023-31.3 2.82-53.446-23.701-72.879-.014-33.234-12.528-50.336-44.78-61.22-10.472-31.995-28.798-45.469-61.998-45.561-9.971-13.657-20.208-21.858-31.994-25.685-11.768-3.821-24.847-3.205-40.905 1.971-13.596-9.821-25.814-14.419-38.192-14.419s-24.596 4.598-38.193 14.42c-16.058-5.176-29.137-5.792-40.905-1.971-11.786 3.827-22.023 12.028-31.994 25.685-33.195.094-51.527 13.568-61.998 45.561-32.252 10.884-44.766 27.986-44.78 61.22-26.52 19.433-33.723 41.579-23.7 72.878-9.828 13.605-14.43 25.827-14.43 38.207s4.6 24.601 14.429 38.205c-3.926 12.226-5.204 22.832-3.904 32.316l14.861-2.036c-1.1-8.028.364-17.544 4.476-29.092l1.372-3.853-2.497-3.24c-9.372-12.164-13.737-22.427-13.737-32.3s4.365-20.136 13.737-32.3l2.497-3.24-1.372-3.854c-10.133-28.456-4.884-44.592 20.059-61.662l3.376-2.311-.115-4.09c-.855-30.415 8.011-42.503 37.946-51.741l3.843-1.186 1.139-3.857c8.656-29.331 22.382-39.426 52.435-38.579l4.09.115 2.311-3.376c17.078-24.954 33.214-30.205 61.669-20.065l3.854 1.374 3.241-2.497c12.158-9.368 22.418-13.731 32.29-13.731s20.132 4.363 32.291 13.73l3.241 2.497 3.854-1.374c28.453-10.139 44.59-4.889 61.669 20.065l2.311 3.376 4.09-.115c30.049-.851 43.779 9.248 52.435 38.579l1.139 3.857 3.843 1.186c29.936 9.237 38.802 21.326 37.946 51.741l-.115 4.09 3.376 2.311c24.943 17.07 30.192 33.206 20.059 61.662l-1.372 3.854 2.497 3.24c9.371 12.165 13.736 22.428 13.736 32.301s-4.365 20.136-13.737 32.3l-2.497 3.24 1.372 3.854c10.133 28.456 4.884 44.592-20.059 61.662l-3.376 2.311.115 4.09c.855 30.415-8.011 42.503-37.946 51.741l-3.843 1.186-1.139 3.857c-8.656 29.332-22.375 39.424-52.435 38.579l-4.09-.115-2.311 3.376c-17.079 24.954-33.214 30.205-61.669 20.065l-3.854-1.374-3.241 2.497c-12.158 9.368-22.418 13.731-32.29 13.731s-20.132-4.363-32.291-13.73l-3.241-2.497-3.854 1.374c-28.455 10.139-44.591 4.889-61.669-20.065l-2.311-3.376-4.09.115c-30.047.853-43.779-9.248-52.435-38.579l-1.139-3.857-3.843-1.186c-29.936-9.237-38.802-21.326-37.946-51.741l.115-4.09-3.376-2.311c-10.115-6.922-16.898-13.758-20.736-20.898l-13.212 7.102c4.531 8.431 11.8 16.252 22.158 23.829.014 33.234 12.528 50.334 44.78 61.218 10.472 31.995 28.798 45.469 61.998 45.561 9.971 13.657 20.208 21.858 31.994 25.685 11.768 3.822 24.847 3.205 40.905-1.971 13.597 9.819 25.815 14.417 38.193 14.417s24.596-4.598 38.193-14.42c16.059 5.177 29.138 5.793 40.905 1.971 11.786-3.827 22.023-12.028 31.994-25.685 33.195-.094 51.527-13.568 61.998-45.561 32.252-10.884 44.766-27.986 44.78-61.22 26.521-19.433 33.724-41.579 23.701-72.879 9.827-13.604 14.429-25.826 14.429-38.206z"/><path d="m360.67 85.431c-4.433-3.915-9.964-5.685-15.568-4.984l-53.183 6.646c-3.31-8.311-11.431-14.203-20.908-14.203h-30.021c-9.477 0-17.598 5.892-20.908 14.203l-53.184-6.646c-5.604-.7-11.135 1.07-15.567 4.983-4.922 4.346-7.861 10.873-7.861 17.458v47.394c-15.991 6.943-23.018 17.926-23.396 36.412-16.054 12.222-20.583 26.149-14.786 45.468-5.793 8.357-8.513 16.01-8.513 23.837s2.72 15.48 8.513 23.837c-5.796 19.317-1.267 33.245 14.784 45.467.391 20.136 8.534 31.26 27.939 38.19 6.718 19.256 18.564 27.963 38.683 28.43 12.228 16.065 26.159 20.597 45.478 14.795 8.353 5.79 16.002 8.508 23.831 8.508s15.478-2.718 23.831-8.508c19.318 5.801 33.25 1.269 45.478-14.795 20.116-.468 31.965-9.175 38.683-28.43 19.405-6.93 27.548-18.054 27.938-38.19 16.051-12.223 20.581-26.15 14.784-45.467 5.793-8.357 8.513-16.01 8.513-23.837s-2.72-15.48-8.513-23.837c5.797-19.318 1.268-33.246-14.786-45.469-.378-18.486-7.406-29.468-23.396-36.411v-47.394c-.003-6.585-2.942-13.111-7.865-17.457zm-13.709 9.9c1.639-.202 2.959.618 3.781 1.344 1.721 1.519 2.789 3.9 2.789 6.214v52.521c0 .556-.073.902-.125 1.064-.441.169-2.057.419-4.742-.586l-55.154-20.675v-33.203zm-113.472.058c0-4.135 3.364-7.5 7.5-7.5h30.021c4.136 0 7.5 3.364 7.5 7.5v45.021c0 4.136-3.364 7.5-7.5 7.5h-30.021c-4.136 0-7.5-3.364-7.5-7.5zm-75.021 7.5c0-2.314 1.068-4.695 2.789-6.214.822-.727 2.143-1.547 3.781-1.344l53.451 6.679v33.203l-55.154 20.675c-2.687 1.007-4.301.756-4.742.587-.053-.162-.125-.508-.125-1.064zm218.448 87.419-.115 4.09 3.376 2.311c14.035 9.604 16.847 18.249 11.146 34.259l-1.372 3.853 2.496 3.24c5.309 6.891 7.781 12.591 7.781 17.939s-2.472 11.049-7.781 17.939l-2.496 3.24 1.372 3.853c5.701 16.009 2.888 24.654-11.146 34.26l-3.376 2.311.115 4.089c.486 17.281-4.051 23.454-21.11 28.718l-3.843 1.186-1.139 3.857c-4.937 16.73-12.01 21.944-29.132 21.463l-4.09-.115-2.311 3.376c-9.73 14.217-18.056 16.926-34.262 11.15l-3.854-1.374-3.241 2.498c-6.886 5.305-12.584 7.776-17.933 7.776s-11.047-2.471-17.933-7.776l-3.241-2.498-3.854 1.374c-16.206 5.774-24.532 3.067-34.262-11.15l-2.311-3.376-4.09.115c-17.129.483-24.195-4.733-29.131-21.462l-1.139-3.858-3.843-1.186c-17.06-5.264-21.597-11.437-21.111-28.718l.115-4.089-3.376-2.311c-14.034-9.605-16.847-18.25-11.146-34.26l1.372-3.853-2.496-3.24c-5.309-6.891-7.781-12.591-7.781-17.939s2.472-11.049 7.781-17.939l2.496-3.24-1.372-3.853c-5.701-16.01-2.888-24.655 11.146-34.259l3.376-2.311-.115-4.09c-.381-13.534 2.332-20.159 11.45-24.917.945 1.29 2.078 2.436 3.429 3.373 2.75 1.906 6.122 2.869 9.8 2.869 2.813 0 5.807-.563 8.836-1.699l49.889-18.702v135.472l37.501-28.126 37.521 28.12v-59.993h-15v30.006l-22.524-16.88-22.498 16.874v-95.085c2.347.833 4.871 1.29 7.5 1.29h30.021c2.629 0 5.153-.458 7.5-1.29v20.083h15v-30.472l49.889 18.702c3.03 1.135 6.022 1.699 8.836 1.699 3.678 0 7.051-.963 9.801-2.869 1.351-.937 2.484-2.083 3.429-3.373 9.118 4.76 11.83 11.384 11.45 24.918z"/><path d="m278.511 196.704h15v15h-15z"/><path d="m410.652 135.46c-8.772 8.772-8.772 23.047 0 31.819l10.606-10.606c-2.924-2.924-2.924-7.682 0-10.606 1.417-1.417 3.3-2.197 5.303-2.197s3.887.78 5.303 2.197l10.606-10.606c-4.25-4.25-9.9-6.59-15.91-6.59s-11.658 2.34-15.908 6.589z"/><path d="m214.771 458.236c2.66-5.389 3.063-11.492 1.133-17.183-1.93-5.692-5.96-10.292-11.35-12.952-5.388-2.66-11.49-3.063-17.183-1.133-5.692 1.93-10.292 5.96-12.951 11.35l13.45 6.639c.887-1.796 2.42-3.139 4.317-3.783 1.896-.643 3.931-.509 5.728.378 1.796.887 3.14 2.42 3.783 4.317.644 1.897.509 3.931-.377 5.728z"/><path d="m405.958 375.824c-2.003-.027-3.875-.833-5.272-2.269l-10.75 10.46c4.191 4.308 9.809 6.725 15.818 6.807.105.001.21.002.314.002 5.893 0 11.452-2.257 15.683-6.375 4.307-4.191 6.725-9.809 6.807-15.818.082-6.01-2.182-11.691-6.374-15.998l-10.749 10.462c1.397 1.436 2.152 3.329 2.125 5.332s-.833 3.875-2.27 5.273c-1.435 1.397-3.328 2.15-5.332 2.124z"/><path d="m37.5 256h15c0-4.135 3.364-7.5 7.5-7.5 4.135 0 7.5 3.364 7.5 7.5h15c0-12.406-10.093-22.5-22.5-22.5s-22.5 10.094-22.5 22.5z"/><path d="m294.936 446.344c0 12.406 10.093 22.499 22.5 22.5 12.406-.001 22.5-10.094 22.5-22.5s-10.093-22.5-22.5-22.5-22.5 10.094-22.5 22.5zm30 0c0 4.135-3.365 7.5-7.5 7.5-4.136 0-7.5-3.365-7.5-7.5s3.364-7.5 7.5-7.5 7.5 3.364 7.5 7.5z"/><path d="m94.872 116.72c-12.407 0-22.5 10.094-22.5 22.5s10.093 22.499 22.5 22.5c12.406-.001 22.499-10.094 22.499-22.5 0-12.407-10.093-22.5-22.499-22.5zm0 30c-4.136 0-7.5-3.365-7.5-7.5 0-4.136 3.364-7.5 7.5-7.5 4.135 0 7.5 3.364 7.5 7.5-.001 4.135-3.365 7.5-7.5 7.5z"/><path d="m452.892 278.347c12.406 0 22.5-10.093 22.5-22.5s-10.093-22.5-22.5-22.5-22.5 10.094-22.5 22.5 10.093 22.5 22.5 22.5zm0-29.999c4.135 0 7.5 3.364 7.5 7.5 0 4.135-3.364 7.5-7.5 7.5s-7.5-3.364-7.5-7.5 3.364-7.5 7.5-7.5z"/><path d="m98.01 349.316c-12.406 0-22.5 10.094-22.5 22.5s10.093 22.499 22.5 22.5c12.406-.001 22.5-10.094 22.5-22.5s-10.093-22.5-22.5-22.5zm.001 30c-4.136 0-7.5-3.365-7.5-7.5 0-4.136 3.364-7.5 7.5-7.5s7.5 3.364 7.5 7.5c-.001 4.135-3.365 7.5-7.5 7.5z"/></g></g></svg>